<svg xmlns="http://www.w3.org/2000/svg" viewBox="0 0 22.002 22.002"><path d="M17.877,0a3.975,3.975,0,0,1,2.915,1.21A3.971,3.971,0,0,1,22,4.125V17.877A4.132,4.132,0,0,1,17.877,22H15.184V13.479h2.85l.43-3.324h-3.28V8.036a1.836,1.836,0,0,1,.337-1.2,1.672,1.672,0,0,1,1.311-.4l1.747-.014V3.452a19.2,19.2,0,0,0-2.55-.129,4.255,4.255,0,0,0-3.116,1.146,4.331,4.331,0,0,0-1.167,3.237v2.45H8.881v3.324h2.865V22H4.125a3.975,3.975,0,0,1-2.915-1.21A3.971,3.971,0,0,1,0,17.877V4.125A3.975,3.975,0,0,1,1.21,1.21,3.97,3.97,0,0,1,4.125,0Z" fill="#FFFFFF"></path></svg>