<svg xmlns="http://www.w3.org/2000/svg" viewBox="0 0 21.742 21.779"><path d="M26.168,10.9a7.885,7.885,0,0,0-.505-2.676,5.566,5.566,0,0,0-3.18-3.18,7.976,7.976,0,0,0-2.639-.507c-1.162-.052-1.529-.067-4.479-.067s-3.327,0-4.479.067a7.976,7.976,0,0,0-2.638.507,5.563,5.563,0,0,0-3.18,3.18,7.914,7.914,0,0,0-.505,2.638c-.052,1.162-.068,1.531-.068,4.48s0,3.325.068,4.48a7.959,7.959,0,0,0,.506,2.64,5.566,5.566,0,0,0,3.18,3.178,7.949,7.949,0,0,0,2.638.543c1.162.052,1.531.068,4.479.068s3.327,0,4.479-.068a7.957,7.957,0,0,0,2.639-.506,5.573,5.573,0,0,0,3.179-3.18,7.931,7.931,0,0,0,.506-2.64c.052-1.162.068-1.529.068-4.48s0-3.323-.07-4.479ZM15.358,20.917a5.582,5.582,0,1,1,5.582-5.581,5.58,5.58,0,0,1-5.582,5.581Zm5.8-10.069a1.3,1.3,0,1,1,1.3-1.3A1.3,1.3,0,0,1,21.163,10.848Z" transform="translate(-4.495 -4.47)" fill="currentColor"></path><path d="M20.738,17.089a3.626,3.626,0,1,1-3.626-3.626,3.626,3.626,0,0,1,3.626,3.626Z" transform="translate(-6.249 -6.224)" fill="#FFFFFF"></path></svg>