<svg width="48" height="48" viewBox="0 0 48 48" fill="none" xmlns="http://www.w3.org/2000/svg">
<path d="M22 12C22 13.0609 21.5786 14.0783 20.8284 14.8284C20.0783 15.5786 19.0609 16 18 16C16.9391 16 15.9217 15.5786 15.1716 14.8284C14.4214 14.0783 14 13.0609 14 12C14 10.9391 14.4214 9.92172 15.1716 9.17157C15.9217 8.42143 16.9391 8 18 8C19.0609 8 20.0783 8.42143 20.8284 9.17157C21.5786 9.92172 22 10.9391 22 12ZM22 24C22 25.0609 21.5786 26.0783 20.8284 26.8284C20.0783 27.5786 19.0609 28 18 28C16.9391 28 15.9217 27.5786 15.1716 26.8284C14.4214 26.0783 14 25.0609 14 24C14 22.9391 14.4214 21.9217 15.1716 21.1716C15.9217 20.4214 16.9391 20 18 20C19.0609 20 20.0783 20.4214 20.8284 21.1716C21.5786 21.9217 22 22.9391 22 24ZM18 40C19.0609 40 20.0783 39.5786 20.8284 38.8284C21.5786 38.0783 22 37.0609 22 36C22 34.9391 21.5786 33.9217 20.8284 33.1716C20.0783 32.4214 19.0609 32 18 32C16.9391 32 15.9217 32.4214 15.1716 33.1716C14.4214 33.9217 14 34.9391 14 36C14 37.0609 14.4214 38.0783 15.1716 38.8284C15.9217 39.5786 16.9391 40 18 40ZM34 12C34 13.0609 33.5786 14.0783 32.8284 14.8284C32.0783 15.5786 31.0609 16 30 16C28.9391 16 27.9217 15.5786 27.1716 14.8284C26.4214 14.0783 26 13.0609 26 12C26 10.9391 26.4214 9.92172 27.1716 9.17157C27.9217 8.42143 28.9391 8 30 8C31.0609 8 32.0783 8.42143 32.8284 9.17157C33.5786 9.92172 34 10.9391 34 12ZM30 28C31.0609 28 32.0783 27.5786 32.8284 26.8284C33.5786 26.0783 34 25.0609 34 24C34 22.9391 33.5786 21.9217 32.8284 21.1716C32.0783 20.4214 31.0609 20 30 20C28.9391 20 27.9217 20.4214 27.1716 21.1716C26.4214 21.9217 26 22.9391 26 24C26 25.0609 26.4214 26.0783 27.1716 26.8284C27.9217 27.5786 28.9391 28 30 28ZM34 36C34 37.0609 33.5786 38.0783 32.8284 38.8284C32.0783 39.5786 31.0609 40 30 40C28.9391 40 27.9217 39.5786 27.1716 38.8284C26.4214 38.0783 26 37.0609 26 36C26 34.9391 26.4214 33.9217 27.1716 33.1716C27.9217 32.4214 28.9391 32 30 32C31.0609 32 32.0783 32.4214 32.8284 33.1716C33.5786 33.9217 34 34.9391 34 36Z" fill="#0D0D0D"/>
</svg>
