<svg xmlns="http://www.w3.org/2000/svg" viewBox="0 0 130 90"><g transform="translate(14513 -6496)"><g transform="translate(-14508.992 6522.25)"><path d="M63.79,16.06a1.411,1.411,0,1,1-2.23-1.73,10.654,10.654,0,0,0,.96-1.53l-3.21-1.94a14.026,14.026,0,0,1-1.07,1.66,1.411,1.411,0,1,1-2.23-1.73,10.653,10.653,0,0,0,.89-1.38L53.96,7.64h-.01a14.488,14.488,0,0,1-1.21,1.93,1.411,1.411,0,1,1-2.23-1.73,10.874,10.874,0,0,0,.89-1.39l-.23-.03a2.937,2.937,0,0,0-1.63.29A22.59,22.59,0,0,1,32.28,17.08c-6.81.68-14.85-1.03-23.96-4.84a28.546,28.546,0,0,0-3.1,7.47A70.188,70.188,0,0,0,3.71,32.73l28.82,1.84c7.06-17.99,21.19-13.56,36.64-8.17l1.39-5.71c-.92-.47-1.84-.96-2.78-1.46a1.429,1.429,0,0,1-.37-.23,1.576,1.576,0,0,1-.22-2.23l.62-.76-2.88-1.74a12.238,12.238,0,0,1-1.14,1.79Zm-.02-6.21c.19-.59.35-1.16.46-1.67a1.4,1.4,0,1,1,2.75.57,21.217,21.217,0,0,1-.75,2.58l4.79,2.89a1.579,1.579,0,0,1,.54,2.17,1.274,1.274,0,0,1-.13.19h0l-.56.68c.65.34,1.3.68,1.94,1a1.571,1.571,0,0,1,.59.3,77.128,77.128,0,0,0,13.43,5.45c1.56.44,3.13.81,4.74,1.11h.11a1.55,1.55,0,0,1,.61.13,49.442,49.442,0,0,0,13.19.36,47.912,47.912,0,0,1,7.36-.19,19.354,19.354,0,0,1,6.2,1.25c2.1.9,3.58,2.35,3.81,4.59a5.413,5.413,0,0,1,.02.9c-.33,5.32-15.46,9.1-21.24,10.54l-1.26.32a137.66,137.66,0,0,1-24.95,4.05,74.774,74.774,0,0,1-20.65-1.21,24.4,24.4,0,0,1-2.67-.81h-.01l-.05-.02a.488.488,0,0,0-.07-.03c-2.94-1.03-6.09-2.34-9.03-3.57-2.75-1.15-5.31-2.22-7.18-2.85v6.97a1.577,1.577,0,0,1-1.58,1.58.66.66,0,0,1-.14-.01H1.58A1.56,1.56,0,0,1,0,45.56v-.1H0c.15-2.19.24-4.62.33-7.18C.57,31.57.85,23.97,2.17,18.9A32.561,32.561,0,0,1,3.86,14,31.23,31.23,0,0,1,6.39,9.37a1.571,1.571,0,0,1,2-.55c9.11,3.96,17.03,5.76,23.59,5.1A19.609,19.609,0,0,0,47.12,4.63a1.545,1.545,0,0,1,.54-.51,6.076,6.076,0,0,1,3.85-.86,6.99,6.99,0,0,1,1.24.25,17.959,17.959,0,0,0,.74-2.39,1.4,1.4,0,0,1,2.75.57,19.4,19.4,0,0,1-.95,3.03c.11.07.22.15.33.23L58.19,6.5a15.006,15.006,0,0,0,.55-1.91,1.4,1.4,0,0,1,2.75.57,19.147,19.147,0,0,1-.85,2.81l3.13,1.88ZM3.58,35.87c-.03.85-.06,1.69-.09,2.51-.07,1.98-.14,3.89-.23,5.59H32.6V37.72L3.58,35.87Zm32.1-.62a89.872,89.872,0,0,1,8.48,3.26c2.96,1.24,6.12,2.56,8.85,3.51.02.01.05.01.07.02l.05.02h0a23.209,23.209,0,0,0,2.33.71,71.344,71.344,0,0,0,19.76,1.14,122.219,122.219,0,0,0,12.44-1.44,14.471,14.471,0,0,0,1.79-5.77,67.735,67.735,0,0,0,.62-8.65c-1.38-.28-2.75-.61-4.1-1a75.921,75.921,0,0,1-12.5-4.94L71.84,28.8a1.576,1.576,0,0,1-1.91,1.16c-.05-.01-.1-.03-.15-.04h0l-.48-.17c-14.22-4.95-27.34-9.53-33.62,5.5Zm55.81,6.54c2.86-.55,5.58-1.17,8.08-1.82.67-.17.95-.24,1.29-.33,5.16-1.29,18.66-4.66,18.85-7.66a1.825,1.825,0,0,0-.01-.41c-.09-.89-.84-1.53-1.91-1.99a16.347,16.347,0,0,0-5.14-1.01,45.842,45.842,0,0,0-6.86.17,52.425,52.425,0,0,1-12.57-.16,70.374,70.374,0,0,1-.63,8.58,24.062,24.062,0,0,1-1.1,4.63Z"></path></g><rect width="130" height="90" transform="translate(-14513 6496)" fill="none"></rect></g></svg>