<svg xmlns="http://www.w3.org/2000/svg" viewBox="0 0 130 90"><g transform="translate(14686 -7315)"><rect width="130" height="90" transform="translate(-14686 7315)" fill="none"></rect><g transform="translate(-16136.973 7167.039)"><path d="M1533.876,208.784l5.285,4.552-2.171,2.152c-8.6-8.178-18.785-12.586-30.725-12.583-11.9,0-22.063,4.365-30.745,12.621-.362-.344-.708-.7-1.082-1.022-.357-.308-.744-.581-1.329-1.033l7.407-6.081c-.5-.036-.852-.081-1.209-.084a12.7,12.7,0,0,1-12.715-15.2,7.216,7.216,0,0,1,.587-1.75c1.574-3.4,3.056-6.858,4.8-10.172a17.555,17.555,0,0,0,1.833-7.753c.133-3.381.42-6.757.652-10.32l2.956.193c-.1,1.922-.188,3.729-.3,5.534-.187,2.944-.379,5.888-.609,8.829a5.328,5.328,0,0,1-.435,1.772q-2.415,5.261-4.917,10.483a1.379,1.379,0,0,0,.162,1.676,9.779,9.779,0,0,0,7.614,3.9,54.266,54.266,0,0,0,12.124-1.395,67.457,67.457,0,0,1,21.108-.62c6.894.87,13.742,2.1,20.632,3.006,6.429.846,12.885.936,19.188-.843a41.221,41.221,0,0,0,6.138-2.767,8.687,8.687,0,0,0,1.213-.932c-.908-.214-1.534-.4-2.172-.5-12.893-2.123-25.088-6.134-36.08-13.369a58.751,58.751,0,0,1-14.075-12.841c-.288-.367-.56-.748-.884-1.182l2.39-1.774c.572.706,1.086,1.355,1.614,1.993,6.631,8.019,15.034,13.587,24.506,17.655a95.113,95.113,0,0,0,23.479,6.6c3.9.588,6.61,2.938,7.307,6.386a7.977,7.977,0,0,1-1.446,6.214,17.371,17.371,0,0,1-7.822,6.1,35.567,35.567,0,0,1-13.543,2.557C1539.707,208.838,1536.8,208.784,1533.876,208.784Zm-64.458-15.31c-.034.409-.087.758-.088,1.106a9.722,9.722,0,0,0,7.622,9.461,24.23,24.23,0,0,0,12.18-.979A52.2,52.2,0,0,1,1502.609,200a46.639,46.639,0,0,1,22.9,3.992,5.577,5.577,0,0,0,1.239.385,66.061,66.061,0,0,0,20.644,1.035,23.067,23.067,0,0,0,11.176-4.031,10.089,10.089,0,0,0,3.648-4.4,3.834,3.834,0,0,0-.321-3.858,59.8,59.8,0,0,1-5.684,3.2c-7.192,3.1-14.793,3.106-22.358,2.282-7.591-.827-15.114-2.255-22.691-3.229a57.765,57.765,0,0,0-14.939.023c-4.109.542-8.184,1.349-12.3,1.871-5.209.66-10.226.344-14.2-3.772C1469.708,193.486,1469.656,193.5,1469.418,193.474Z" transform="translate(0)"></path><path d="M1510.16,237.261l-1.444,2.514-4.988-2.84c-.036.578-.081.953-.081,1.33-.005,3.753-.035,7.508.019,11.261.014.958-.241,1.275-1.218,1.235-1.992-.083-1.783.145-1.788-1.753-.009-3.535,0-7.07-.007-10.605,0-.419-.05-.838-.091-1.479-1.495.852-2.837,1.555-4.111,2.366-.714.454-1.091.329-1.428-.4-.258-.556-.592-1.077-.958-1.728a46.162,46.162,0,0,0,5-2.951c2.106-1.614,3.936-1.706,6.069-.043a41.126,41.126,0,0,0,4.792,2.829C1509.983,237.036,1510.021,237.107,1510.16,237.261Z" transform="translate(-7.003 -18.131)"></path><path d="M1533.476,236.826v1.406c0,3.788-.02,7.576.016,11.363.007.808-.238,1.163-1.056,1.06a1.991,1.991,0,0,0-.545,0c-1.078.165-1.458-.226-1.437-1.367.071-3.641.029-7.283.023-10.926,0-.425-.046-.849-.086-1.519l-5.03,2.838-1.479-2.6c1.679-.977,3.269-1.918,4.875-2.832,1.07-.609,2.158-1.626,3.246-1.638,1.039-.011,2.1,1.032,3.136,1.629,1.6.921,3.2,1.857,4.893,2.84l-1.491,2.592Z" transform="translate(-14.544 -18.042)"></path></g></g></svg>